<svg xmlns="http://www.w3.org/2000/svg" xmlns:xlink="http://www.w3.org/1999/xlink" id="Слой_1" x="0" y="0" version="1.1" viewBox="0 0 300 300" style="enable-background:new 0 0 500 500" xml:space="preserve"><style type="text/css">.st0{fill:#fff}</style><rect width="45.5" height="45.5" x="138" y="116.5" class="st0" transform="matrix(0.7071 0.7071 -0.7071 0.7071 145.5402 -72.8379)"/><rect width="45.5" height="166.7" x="52.3" y="141.6" class="st0" transform="matrix(0.7071 0.7071 -0.7071 0.7071 181.0483 12.848)"/><rect width="21.4" height="42.8" x="150" y="0" class="st0"/><rect width="21.4" height="42.8" x="233.3" y="34.5" class="st0" transform="matrix(-0.7071 -0.7071 0.7071 -0.7071 377.0973 268.0186)"/><rect width="21.4" height="42.8" x="66.6" y="34.5" class="st0" transform="matrix(0.7071 -0.7071 0.7071 0.7071 -16.9125 71.0886)"/><rect width="21.4" height="42.8" x="233.3" y="201.2" class="st0" transform="matrix(0.7071 -0.7071 0.7071 0.7071 -85.918 237.758)"/><rect width="42.8" height="21.4" x="257.2" y="128.5" class="st0"/></svg>